<mxfile host="65bd71144e">
    <diagram id="HIP3nbAZw_EuaXWnEj3U" name="Page-1">
        <mxGraphModel dx="696" dy="695" grid="1" gridSize="10" guides="1" tooltips="1" connect="1" arrows="1" fold="1" page="1" pageScale="1" pageWidth="850" pageHeight="1100" math="0" shadow="0">
            <root>
                <mxCell id="0"/>
                <mxCell id="1" parent="0"/>
                <mxCell id="7" value="http://ics2o.mths.ca" style="swimlane;whiteSpace=wrap;html=1;" parent="1" vertex="1">
                    <mxGeometry x="40" y="40" width="760" height="480" as="geometry"/>
                </mxCell>
                <mxCell id="8" value="" style="shape=image;verticalLabelPosition=bottom;labelBackgroundColor=default;verticalAlign=top;aspect=fixed;imageAspect=0;image=data:image/png,iVBORw0KGgoAAAANSUhEUgAAATYAAACjCAMAAAA3vsLfAAABPlBMVEVtvP6RhMr///+AzgDYAHv///yRhMv//v////r8//+LgMT8+v6LfsGMgcDd1+jAutxrvfxvuv9otv7SzeXe7vmKzPVsvvfz/f5juPxtuPfaAHemY7q6RKPdAHSRhcd80QDK6faPhbyDyBiIslmCygiJrmOPgc+PjKv///Vnwf+HfbuUhcKSgdOKh7p40gCGn4FgxP/QBXvr6PTm4+7h7fSclcKYj8OvqdDo+v6m2PeMxfJ6uu663/uZy/HV7/upoM61rdOdksiGw/bR8vmJkqeMqXKLrm2Lp3yLm4yKjbSCwTeItzqHwCXEvtyNo2+Ll5KQl56Gt0mWftmLjbCJpe6eesmIlt+CtPeIkanBJ4+tcsenRaXAAIK5M56zY8KLtVS+Rp2KnuqGpOO/I5ZVy/6CsmTCAHuRkOKGpIHUze711nFMAAAOAElEQVR4nO2dC1fTyhbH05RMkj4wtRzaVJkSKGNDyqsKFkqLelAEwQeioscjV8+5nnu+/xe4M2kpDZm0YZI0kTX/tcS1xCSTX/bes+ctiFwMEuIuwK8pjo1JHBuTODYmcWxM4tiYxLExiY5NkSRRlkVJFCWsyB4uKfW6KOPHKTe4RpJVVZUvCyZHIJE8Ad8dP0ZSSPncomPD10r1Oi5WtvlwOkI1m1mRUJNkauEozNRSScFSS62Zme7MzHw0evToUUnFH1VUPWyGik3CLyKKzeKTTSOfi1TL1tbjYpM80ZdNqyph1prf3mnrehnrbjTSyprQ3tmeL6kivWAe2MTmna1lgACw/0QlBFIpADK5rTuYHN0brpdMbO3utLWygDUbnQRd1wWhXG535kvUcjixyb1Aky1u5hB5oxSEMBWdQP9vBJb3psU6iSpe7HCwEbGpdTvYyAQBv5OmE3SFaERuTcCZZb29W1LI40WH1TmwkVoA1wXFreX84JUmIfJxcntNpS55c5NwrOliQ9M0YbIqt7vY+0ZiE+vYPbGlETObIDbCDYJcUVTqdFe1Q0ypo2uCJugTxqZp5Q6uhnAZPLEpinyyTJxzsiLULAugPdkjFcHpgNptlycMrCfsrOV2CxfAAxuJa/JeDqAUTE0eHQAwldnLKpQ8kQQWdVfXJm1nQ+DaM5LD3gbY7LiW3cxNGpcDXa7HzQVOUrfjYtZXu+XwgytsuArNbiIw0Zh2TRCgJwSSAxuJa5japGsCh3TN3GmJQ4565aQ4ru3lUZzGhs0NLRdF0qK5Ftewh8aKDVdFWqc0VJkOYRPvZFLWRBMPFzVgQaN53dpUqauRKjRWaZq+q0qyC5siTi/Ha2o9cqlNXDE54ppUaseLrK/ZFg1bdhPXofEL5KZFp5PWt+P10EtpHVVxYROLmZgDW08AbGWdyVtLj9tDbWE37bqxZbfsfC0Byhcd1OqdQszJR0+kteCsSSWcnRfzycAGUuDpVVzDf0rtJNiaQLIQvSX1e+D62CRxDybBRW1sy81BXMMVwm45GaENN4bL20rdgU1sLsfNqy+Ak947A2w4Z3umxdaqcgrnju1SvVctXMa2YvBGKLi6RYCbYWxoa+ClioQrhHYysGFz039X1foAm6yIjzPBmFkG+QkhbpHnIYBGkHuBXJOEDdvalPmEMLNV3lVKyjA2I5ixWeg0RfrPkd2HbgWMk5lirzYgTrodN6phlTvDVYIsZQO2EBopY2V/7fnSi4OXh70xgiACe+Jl+0/diRuVQ+2SJA5he5gJ9KYgtbJ2lE6nq9VqeuHV2krDCoQNWYMEJCENq0vpM3V1CFsxADaYR+DNcXW1mr7Uq0MEocFeL4B8ttecV5RSkkKbINzdHcaGW1bM1FIIZp7X0ula+koLbxBqsCfPJHOzsUlKK56ecC8Vth3YTgL4qAVfV1fTtWFs1dqbU4O9YwDkHvaGYiTlUcKwdZSh2Ea62pjfEaz1UF06aS2N/XXhbRBry0z3sKnSTMKw/TZUJYjs2ACC58eraZeqR4GwFXulkxKGTQsLmwXAIvbJ69TwP7wN4PeZotJvJNxObMBA72vVtAsbNrd3eY7NExtCB25kPW4P2M3ttmODoPHOC9tL9qr01mOD6NgL23OOzUsgby14YFtd4tg8sVme2KqLPLZ5CnJsLNSAwbFxbGPEsTGJY2MSx8Ykjo1JHBuTODYmcWxM4tiYxLExiWNjEsfGJI6NSRwbkzg2JnFsTOLYmMSxMSkR2Lx//2tjIyuKEYQpK4X/pso6TXlgq6aXGvRrsOxbj5gX7QtboaDNkp+CFprIlgym6b0Mwqe1ATL1GwAyM/fwAU3v37/1xPaOegXRyoqFUmjEFF9f2NZNTMxc/9sMDxu+3Xrh7t2g2MiAXgruLx0t1Dy0UKt6YKt6XYIvOro4ODSA9wRfX9j0gmYKZ40v90LUh4+f8Fcwg2ID0Np/VyNTmelarbonafWNzfsiW7XFc+/Jvb6wmes/vnzemKrMhafK3NTP+x8FT3Pz66QNY2lAgmY3Nh+vOsHL2PpcF9YQ8pg6OB5bQTCFL58rWBtT4Qnfq1KZ+vPH+rpeYMcGwOE7ujGFotoBaNAXfvjAVvj0B7aN8EW+w9eGSfdTn9jgYtXbmgKrWl1r0P10LDZN0/+ci4Ia5obJzTVM6rJCn9gORvhgGNhqbyF1WtJ4a9Puz02F6Z4ObhuVqY/M1gbQuVc1GYJIPZOuHtOTkLHYzG/RICPCtczG3NdPZsF0xbfx2HB60Fga//ZB9QbR9jobh007+xqNh16qUrlnFtYZsCELGl4TJUNTrXoBbo5NM7V7U9Fim5r7eWYKrvjmw0lh6k2Uga2HbXVhhbbn2RhswtnPORyCIhR21C/rBVet4AMbaLygLNMIWdX0PqDsbDDOSf+xw3akqnyede+j4SO2wcZF5NSwXiLgzt1GYSuYwvq9iJkRbegFV/Lmp0pAF5E7KdYa9tGbYhPuTwBb5cyduiUIG6B0vI3EpmmFiWD7x91S8IENNBajx1bFGQhly7jR2EztPxPBxpKAQAQOosZWra3WDm9ck2qFvyeC7fssg7UhA55HTI2AO7ZunLdpmkmqhIiaVgNtnK0XrpubL2zgVfTcXjOku7MFED22ymectt0cG1lguxY9tsObN64Ks4VPG9FmuwQbbl2xpLukMj2KmtoSvedobJv0j7mIsc1tfHdT89lxhB7Uomso1NLp1VcWfbebcdjMH5WonfR+gdLj5rO/7cP/IqNGeo6O33+gD5aOw1Ywv1UiNLeNjcrPH7RxP79jCacvI+wUP3oAPIaYx3dT6n9F2wXywd3Z5h8bRPnzVzV7dKrmwc9rvG/U4Az5/WptaQWxYsMZ7/evxN5CNjnb8TcqU5Vv9CFm39iAZby0R/xWqRoxblVN0y+xla5d7KMG9Zn+rE1Y//5Xrxck7BhXIdT+pj/ULzaAQAPl3689X6Lrv0uLXlZYPfa4Zmlp8WAfNsCI/aPGWpuGm1j6t425SvghrlL5/NEs3KUOXfkflYcYXYN07lAnc4DTFY/h5RFzQBqnOMe1gBVoMgNOD8wf935WCLkwNfUXImd/BLI2IgCg5dhBcVgWggwzjuyDBUbtVeZnVB5bnGme/fPlj/sh6hs6K5iU5sHNsY1U3PPbyFyX8KbOmGQyzsjH3RJsttWFJcFcp48q30ZsIXIbu8Xe7cEW6l7Gl4c13X5sExXHxiSOjUkcG5M4NiZxbEzi2JjEsTGJY2MSx8Ykjo1JHBuTODYmcWxM4tiYxLExiWNjEsfGJI6NSRwbk8LCZkHkuRX7It+K3UsQQq/1bKsvODZvbpbnEqM1js2TGsh5TbisnfPY5o0NPqhR19NXj/Lsh9FdYkvaOVeaEBY2kL+oUrhVydK9W4dNEHYkKRRsCL1doGF7tRLCOVdJxDZsbSfMh9HBFHVtVm2fsgLNrxJrbdo1bKwHbZKrALQXGQ1mVdbIHOnXKMj5y4Mz/NRWsg7aFDrqsJNOBzif1Gg0FoemhZODShdeg1MjiLX1T4wUk3asq7AtDmNrBjhEuLEC4POFPrgq2RHq+E0DQSNAlZC7Olk+WYcIl3cdVUI2wJHVBrLQ6fmL41qPWe34ABjIMECA80kvT8MVJakTNymHyvPKMDZxL0AkApBMJD98+Xzx3cXSwdt8A5JZ4F67Zfm5o3V5YrUkzethzvsLKr07dBquRDIQ2gLFG70rwl5pGIjdyK5utTfwUen3RNUJ7dIQNkUWHy4HxmYZFrT3nAyMLXMi9c1NVUrupdcxaqf/OfvYFJG6+PpGajRQCkLLCnY4OlGuqQywiZ0EOWl5VxlKQMi3fRLsZPkU6Qyx7A1Ag94nBZ6KV9iUbttzq8iJS+8qjrxNxF7KnjBcvm5QXrZgCp2IQ1KTgk3XtGclSVEd2MTNUF46uGDqKmuzI8huYTYR8U3TyrvYCZzYpGIubmA9QfBYGsaGGwpJiW7tErF+B7Z69illa6sYBHPNusNJle27o1dCTUq4Quhla0PYFHE6R4YGYkVHHp8/ER3WpsrY3BKATdPa6qBQA2w4B9lLAjZgyHXZEduy6m4iWgp6V1Ip2JSmlQBs+aaiOEKbJCtqJwFNBR27qBubIsnivznaPk2TxJbK/Ss6bI04qaK04u8+Kv+GWyySC5utEwTjsjhATA1liiJVXe+F2NFLIylbpzRcHic28SSHYnNUgFCueN3W+hFEnY/VTU29U1KHC+TEJol3cjFhw42DjDHtrESvpJAOJPzVY0BGnqlvq86CObCRL13MxYQNoM0mbhw764O+VKUuddvlWPxUE8rteVVWR1gbUfMpSFlkA5BwmpjjZLf98ZfKGEUvU+sbXKmj95Zlz06Knv2csr7dchXMhU2Wsyf5hr2JxURETBvm8/BO1sPSLiVJ6vwze/hvUsmvjuOCrndmVMVVMLe1KXUxe7KVQ5YVUpfGaCFs1uhpMSspijLS2rCjKqV5YnGToaYLZVNrb7ewd8quesqFTcIRrq5kp58YyxkEohfKb540ZXEMM1IwtUTAdXefaeVC9IPO5bLe7nRLal2RJHfR3NaGsdn/TW5OnzzeNPIRytp8cvIwS/xvDLK+vfUKprbmd3ee6XrPhyLR7LOd7fmWKtGIeWG7BjEbmagpmi9+2AZUtRSdcMCoq+qIKmoUNnyxQkwhMmHP9GdnroJh5nLvDpFIxR+FFtJ8YUuu1P67RSX7cwTCxmQO/sV4e1ke8U7B5cxtKfo1rS12cWxM4tiYxLExiWNj0v8BzeYHwN0/ockAAAAASUVORK5CYII=;" parent="7" vertex="1">
                    <mxGeometry x="520" y="110" width="230" height="120.94" as="geometry"/>
                </mxCell>
                <mxCell id="9" value="what is the number&amp;nbsp;" style="rounded=1;whiteSpace=wrap;html=1;" parent="7" vertex="1">
                    <mxGeometry y="20" width="760" height="30" as="geometry"/>
                </mxCell>
                <mxCell id="12" value="What do you chouse" style="text;html=1;align=center;verticalAlign=middle;resizable=0;points=[];autosize=1;strokeColor=none;fillColor=none;" parent="7" vertex="1">
                    <mxGeometry x="10" y="65" width="130" height="30" as="geometry"/>
                </mxCell>
                <mxCell id="14" value="" style="ellipse;whiteSpace=wrap;html=1;" vertex="1" parent="7">
                    <mxGeometry x="70" y="95" width="30" height="30" as="geometry"/>
                </mxCell>
                <mxCell id="15" value="Nigative" style="text;html=1;align=center;verticalAlign=middle;resizable=0;points=[];autosize=1;strokeColor=none;fillColor=none;" vertex="1" parent="7">
                    <mxGeometry x="120" y="95" width="70" height="30" as="geometry"/>
                </mxCell>
                <mxCell id="16" value="" style="ellipse;whiteSpace=wrap;html=1;" vertex="1" parent="7">
                    <mxGeometry x="190" y="95" width="30" height="30" as="geometry"/>
                </mxCell>
                <mxCell id="17" value="Get your number" style="rounded=1;whiteSpace=wrap;html=1;" vertex="1" parent="7">
                    <mxGeometry x="15" y="140" width="115" height="30" as="geometry"/>
                </mxCell>
                <mxCell id="18" value="your number is" style="text;html=1;align=center;verticalAlign=middle;resizable=0;points=[];autosize=1;strokeColor=none;fillColor=none;" vertex="1" parent="7">
                    <mxGeometry x="10" y="190" width="100" height="30" as="geometry"/>
                </mxCell>
                <mxCell id="13" value="Positive" style="text;html=1;align=center;verticalAlign=middle;resizable=0;points=[];autosize=1;strokeColor=none;fillColor=none;" vertex="1" parent="1">
                    <mxGeometry x="45" y="135" width="70" height="30" as="geometry"/>
                </mxCell>
            </root>
        </mxGraphModel>
    </diagram>
</mxfile>